<?xml version="1.0" standalone="no"?>
<!DOCTYPE svg PUBLIC "-//W3C//DTD SVG 20010904//EN"
 "http://www.w3.org/TR/2001/REC-SVG-20010904/DTD/svg10.dtd">
<svg version="1.0" xmlns="http://www.w3.org/2000/svg"
 width="800.000000pt" height="800.000000pt" viewBox="0 0 800.000000 800.000000"
 preserveAspectRatio="xMidYMid meet">
<metadata>
Created by potrace 1.14, written by Peter Selinger 2001-2017
</metadata>
<g transform="translate(0.000000,800.000000) scale(0.100000,-0.100000)"
fill="#000000" stroke="none">
<path d="M5868 7675 c-2 -1 -23 -5 -48 -8 -240 -31 -484 -172 -630 -366 -14
-18 -29 -38 -35 -45 -29 -34 -115 -207 -115 -230 0 -7 -3 -16 -7 -20 -4 -3 -8
-12 -9 -19 -1 -7 -7 -32 -14 -57 -6 -25 -12 -58 -13 -75 -2 -16 -5 -34 -8 -40
-6 -11 -3 -211 4 -260 2 -17 8 -41 12 -55 5 -14 9 -34 10 -45 2 -19 7 -36 25
-80 4 -11 14 -36 21 -55 14 -36 87 -171 98 -180 3 -3 19 -22 35 -44 130 -174
352 -308 591 -357 76 -16 271 -15 350 0 290 58 549 242 676 481 13 25 26 47
30 50 5 5 39 92 43 113 2 6 6 19 9 27 31 82 40 144 40 290 -1 155 -6 194 -47
310 -15 41 -28 80 -29 86 -2 6 -10 22 -18 35 -9 13 -18 32 -22 42 -28 77 -196
262 -302 334 -110 74 -244 131 -366 154 -56 10 -273 21 -281 14z"/>
<path d="M3957 7324 c-1 -1 -43 -5 -94 -8 -50 -3 -115 -11 -145 -17 -29 -6
-62 -12 -73 -14 -88 -17 -135 -30 -240 -66 -66 -23 -131 -47 -145 -54 -14 -7
-52 -26 -85 -41 -59 -28 -235 -131 -245 -143 -3 -3 -39 -31 -80 -62 -41 -31
-112 -93 -158 -138 -98 -96 -129 -113 -197 -113 -67 0 -96 15 -240 130 -66 52
-125 99 -130 103 -22 17 -73 18 -103 4 -41 -21 -55 -61 -48 -137 3 -35 9 -115
12 -178 3 -63 7 -139 10 -170 2 -30 6 -93 8 -140 3 -47 8 -119 11 -160 3 -41
8 -113 10 -160 3 -47 7 -116 10 -155 2 -38 7 -110 10 -160 16 -275 16 -273 65
-328 55 -63 128 -78 260 -52 13 3 42 7 65 10 22 3 83 13 135 21 122 20 137 22
185 29 45 7 80 13 110 19 34 6 119 19 145 21 32 3 91 13 157 26 29 6 57 8 62
5 5 -4 12 -2 16 3 3 5 13 9 23 9 9 0 35 3 57 7 45 7 198 31 260 40 105 16 121
21 146 46 23 23 28 88 8 116 -8 12 -45 45 -83 74 -301 237 -317 254 -319 351
-1 56 17 103 55 150 13 15 31 37 41 50 70 92 342 372 412 423 22 17 45 35 50
41 16 18 142 105 225 155 146 88 260 134 444 179 119 28 149 49 149 105 0 60
-37 91 -128 110 -22 5 -44 9 -50 11 -34 9 -89 20 -150 29 -22 4 -47 8 -55 10
-40 11 -364 27 -373 19z"/>
<path d="M5790 5624 c-465 -59 -846 -302 -1178 -749 -72 -98 -232 -389 -232
-424 0 -6 -4 -11 -8 -11 -5 0 -9 -6 -10 -12 0 -7 -18 -62 -40 -123 -22 -60
-42 -117 -45 -125 -9 -25 -36 -133 -42 -165 -2 -16 -7 -41 -11 -55 -3 -14 -7
-34 -9 -45 -2 -11 -4 -20 -5 -20 -1 0 -3 -11 -5 -25 -2 -14 -6 -45 -10 -70
-13 -89 -16 -127 -22 -268 -6 -168 -1 -185 65 -228 115 -75 416 -158 692 -190
25 -3 56 -7 70 -9 45 -7 129 -15 295 -30 151 -14 327 -19 650 -19 366 -1 610
8 798 29 26 3 71 7 100 10 229 24 493 74 642 121 156 50 264 118 266 168 4
121 -8 318 -26 431 -3 17 -7 48 -10 70 -4 22 -9 47 -12 55 -3 8 -7 28 -9 44
-2 15 -12 54 -21 85 -9 31 -17 63 -18 71 -3 27 -87 263 -102 286 -8 13 -14 24
-13 26 1 2 -3 14 -8 28 -5 14 -10 29 -10 34 0 5 -4 12 -9 15 -4 3 -19 31 -33
61 -13 30 -31 61 -39 68 -8 6 -12 12 -8 12 6 0 -93 167 -115 195 -5 6 -36 46
-70 90 -133 174 -326 348 -512 460 -124 76 -329 160 -440 181 -17 3 -64 14
-86 19 -74 19 -303 24 -420 9z"/>
<path d="M1935 4872 c-53 -5 -180 -34 -192 -44 -7 -6 -13 -8 -13 -4 0 3 -26
-6 -57 -20 -32 -13 -70 -30 -85 -37 -16 -6 -28 -15 -28 -19 0 -5 -5 -8 -11 -8
-19 0 -131 -84 -192 -145 -249 -245 -347 -599 -262 -939 21 -80 85 -238 105
-256 9 -9 50 -69 50 -75 0 -20 198 -215 219 -215 5 0 14 -7 22 -16 32 -39 254
-134 349 -150 19 -3 42 -8 50 -11 24 -9 251 -10 290 -2 19 4 48 10 63 13 101
18 232 73 337 141 86 55 213 179 268 261 40 59 125 224 116 224 -2 0 3 17 11
37 9 20 18 51 20 67 2 17 8 54 14 81 12 63 12 225 0 290 -5 28 -11 60 -14 73
-11 61 -82 244 -97 250 -4 2 -8 8 -8 13 0 36 -165 228 -255 297 -85 66 -302
171 -325 157 -5 -3 -11 -1 -14 4 -14 21 -252 43 -361 33z"/>
<path d="M6140 2744 c-184 -58 -342 -107 -351 -109 -9 -2 -39 -11 -65 -20 -27
-9 -58 -19 -69 -21 -11 -2 -31 -8 -45 -13 -23 -9 -161 -51 -185 -57 -77 -17
-342 -110 -352 -122 -20 -27 -26 -78 -12 -103 20 -39 25 -42 184 -132 161 -90
212 -122 233 -146 68 -75 76 -162 23 -262 -18 -35 -36 -66 -40 -69 -3 -3 -15
-21 -25 -40 -11 -19 -22 -37 -26 -40 -4 -3 -22 -31 -41 -62 -18 -32 -37 -58
-41 -58 -5 0 -8 -6 -8 -14 0 -8 -7 -16 -15 -20 -8 -3 -15 -12 -15 -21 0 -8 -4
-15 -8 -15 -4 0 -15 -12 -24 -28 -9 -15 -27 -39 -40 -53 -13 -14 -45 -52 -73
-84 -120 -141 -257 -265 -400 -362 -78 -52 -280 -150 -330 -160 -40 -7 -84
-47 -87 -78 -7 -70 30 -110 113 -121 97 -12 436 -12 534 1 108 15 145 21 173
29 9 3 28 7 42 10 122 23 330 102 473 179 62 32 114 63 115 68 2 5 9 9 16 9
13 0 197 135 208 154 4 6 8 8 8 5 0 -8 148 138 198 196 60 71 59 70 91 117 51
75 98 104 178 112 50 5 81 -9 254 -109 137 -80 175 -91 223 -66 23 13 40 48
39 81 -1 26 -12 84 -43 232 -17 79 -32 152 -34 163 -3 17 -27 130 -42 200 -2
11 -7 34 -10 50 -3 17 -12 59 -19 95 -8 36 -16 74 -18 85 -2 11 -7 31 -10 45
-4 14 -9 39 -11 55 -3 17 -18 93 -35 170 -73 347 -70 336 -126 388 -30 28 -83
47 -129 46 -22 0 -192 -48 -376 -105z"/>
<path d="M1997 2834 c-1 -1 -38 -4 -82 -8 -78 -5 -110 -10 -170 -23 -16 -4
-34 -8 -40 -9 -101 -20 -255 -80 -390 -151 -51 -27 -218 -140 -265 -180 -163
-139 -326 -330 -436 -513 -21 -36 -41 -67 -44 -70 -16 -16 -154 -321 -151
-334 1 -4 -5 -19 -14 -32 -8 -13 -13 -24 -10 -24 3 0 -1 -13 -10 -30 -8 -16
-16 -33 -16 -37 0 -13 -10 -57 -16 -73 -4 -8 -5 -18 -5 -22 1 -5 -3 -8 -9 -8
-5 0 -7 -4 -4 -10 3 -5 1 -27 -5 -47 -17 -60 -50 -223 -55 -278 -3 -27 -7 -61
-10 -75 -3 -14 -9 -95 -12 -181 l-5 -156 31 -35 c51 -59 215 -128 386 -163 11
-3 40 -9 65 -15 56 -12 95 -19 140 -26 19 -2 46 -7 60 -9 77 -15 305 -41 430
-50 30 -2 109 -7 175 -12 154 -10 864 -10 1020 1 66 4 145 9 175 11 30 2 69 5
85 8 17 3 66 8 110 12 44 3 87 8 95 10 8 2 38 7 65 10 91 12 98 13 193 30 15
3 38 7 52 10 14 4 34 8 45 10 182 37 353 101 417 157 37 32 45 60 42 153 -2
97 -13 251 -19 279 -2 12 -6 39 -9 61 -3 22 -10 65 -17 95 -6 30 -12 64 -14
75 -2 11 -4 20 -5 20 -1 0 -3 9 -5 20 -8 44 -29 120 -35 125 -3 3 -6 12 -6 20
0 8 -11 47 -24 85 -13 39 -25 72 -25 75 -1 3 -7 18 -13 33 -7 16 -12 30 -12
32 0 7 -69 158 -80 175 -5 8 -18 34 -29 56 -10 23 -35 67 -55 98 -20 31 -36
59 -36 62 0 3 -8 16 -17 29 -10 12 -25 33 -33 45 -50 75 -146 188 -233 277
-282 284 -601 445 -973 489 -47 5 -193 11 -197 8z"/>
</g>
</svg>
